<?xml version="1.0" encoding="utf-8"?>
<!-- Generator: Adobe Illustrator 25.0.0, SVG Export Plug-In . SVG Version: 6.00 Build 0)  -->
<svg version="1.1" id="Layer_1" xmlns="http://www.w3.org/2000/svg" xmlns:xlink="http://www.w3.org/1999/xlink" x="0px" y="0px"
	 viewBox="0 0 500 500" style="enable-background:new 0 0 500 500;" xml:space="preserve">
<style type="text/css">
	.st0{fill:#330000;}
	.st1{fill:#FF9A00;}
</style>
<g id="Illustrator" transform="translate(2303 308)">
	<path id="_16" class="st0" d="M-2199.2-270.6h292.3c36.7,0,66.4,29.7,66.4,66.4V88.2c0,36.7-29.7,66.4-66.4,66.4h-292.3
		c-36.7,0-66.4-29.7-66.4-66.4v-292.3C-2265.6-240.9-2235.9-270.6-2199.2-270.6z"/>
	<path id="_30" class="st1" d="M-2058.3-11.8h-64.9l-13.3,43.3c-0.4,1.5-1.8,2.6-3.4,2.5h-32.9c-1.9,0-2.5-1-2-3.1l56-161.8
		c0.6-1.7,1.1-3.6,1.7-5.8c0.8-3.1,1.1-6.4,1.1-9.6c-0.1-0.9,0.5-1.8,1.5-2c0.2,0,0.3,0,0.5,0h44.7c1.3,0,2.1,0.5,2.2,1.4l63.9,178
		c0.6,1.9,0,2.8-1.7,2.8h-36.5c-1.3,0.1-2.5-0.7-2.8-2L-2058.3-11.8z M-2113.4-41.7h47.6c-1.1-3.7-5-12.4-6.5-17.1
		s-3.6-8.4-5.2-13.7c-1.7-5.3-3.4-10.7-5.1-16c-1.7-5.3-3.2-10.5-4.7-15.5c-1.4-5-2.7-9.5-3.8-13.6h-0.3c-1.6,7.6-3.6,15.1-5.9,22.5
		c-2.6,8.4-5.3,17-8,25.8C-2108-60.4-2110.8-49.1-2113.4-41.7L-2113.4-41.7z"/>
	<path id="_31" class="st1" d="M-1965-118.8c-5.8,0.2-11.4-2-15.5-6.2c-4-4.3-6.1-10.1-5.9-16c-0.2-5.9,2.1-11.5,6.3-15.6
		c4.2-4,9.8-6.2,15.6-6c5.9-0.3,11.7,1.9,15.9,6c3.9,4.2,6,9.8,5.8,15.6c0.2,5.9-1.9,11.7-6,16C-1953.1-120.8-1959-118.5-1965-118.8
		z M-1983.2,31.3V-97.1c0-1.7,0.7-2.5,2.2-2.5h31.9c1.5,0,2.2,0.8,2.2,2.5V31.3c0,1.9-0.7,2.8-2.2,2.8h-31.6
		C-1982.3,34.1-1983.2,33.2-1983.2,31.3z"/>
</g>
</svg>
