<?xml version="1.0" standalone="no"?>
<!DOCTYPE svg PUBLIC "-//W3C//DTD SVG 20010904//EN"
 "http://www.w3.org/TR/2001/REC-SVG-20010904/DTD/svg10.dtd">
<svg version="1.0" xmlns="http://www.w3.org/2000/svg"
 width="500.000000pt" height="500.000000pt" viewBox="0 0 500.000000 500.000000"
 preserveAspectRatio="xMidYMid meet">

<g transform="translate(0.000000,500.000000) scale(0.100000,-0.100000)"
fill="#000000" stroke="none">
<path d="M2240 4574 c-357 -43 -713 -189 -1015 -417 -103 -78 -304 -279 -382
-382 -232 -307 -375 -658 -417 -1025 -64 -550 81 -1079 417 -1525 78 -103 279
-304 382 -382 651 -491 1498 -570 2216 -208 213 107 360 215 535 389 276 277
452 585 549 961 159 616 24 1271 -368 1790 -78 103 -279 304 -382 382 -447
337 -985 483 -1535 417z m527 -49 c375 -49 729 -203 1028 -446 98 -79 269
-258 344 -359 253 -340 401 -775 401 -1174 l0 -104 -62 -11 c-35 -6 -105 -31
-157 -56 -173 -84 -280 -84 -458 -2 -191 89 -317 86 -510 -13 -131 -66 -269
-64 -416 8 -122 58 -152 66 -257 65 -98 0 -172 -20 -245 -65 -16 -10 -33 -18
-37 -18 -3 0 -27 29 -53 65 l-47 66 37 41 c61 67 80 120 80 218 -1 72 -5 94
-28 141 -55 115 -175 191 -301 193 -98 1 -163 -23 -232 -86 -79 -73 -107 -132
-111 -238 -3 -71 0 -94 19 -139 20 -47 28 -56 58 -64 19 -4 78 -28 132 -53 53
-25 124 -50 157 -56 60 -11 62 -13 92 -66 17 -30 28 -56 25 -60 -15 -14 -147
21 -226 59 -105 52 -166 69 -250 69 -91 -1 -142 -14 -245 -66 -166 -83 -284
-83 -450 0 -102 51 -154 65 -240 66 -81 0 -158 -21 -253 -70 -44 -22 -84 -40
-91 -40 -17 0 -14 295 4 437 45 344 178 673 386 953 78 105 248 282 353 366
286 233 646 389 1006 438 143 19 402 20 547 1z m-597 -1614 c19 -10 49 -36 67
-59 97 -127 6 -312 -155 -312 -107 0 -193 85 -194 192 -1 154 146 248 282 179z
m-1130 -581 l115 -55 125 0 125 0 115 55 115 55 116 0 115 0 95 -47 c117 -58
153 -68 255 -68 92 0 158 17 253 65 86 44 131 55 217 55 81 0 156 -20 228 -60
68 -39 155 -60 241 -60 93 1 143 13 239 60 107 51 160 63 259 58 72 -4 95 -10
182 -50 126 -58 162 -68 255 -68 92 0 150 16 260 69 51 25 108 44 139 48 l54
6 -7 -58 c-8 -72 -10 -75 -49 -75 -48 0 -104 -18 -180 -56 -161 -82 -298 -85
-446 -9 -178 90 -313 93 -491 10 -116 -53 -158 -65 -235 -65 -77 0 -119 12
-235 65 -173 80 -336 78 -478 -6 -133 -78 -306 -78 -447 1 -155 86 -310 88
-480 5 -110 -53 -152 -65 -235 -65 -84 0 -125 12 -235 65 -170 84 -324 81
-483 -8 -29 -16 -54 -28 -56 -26 -2 2 -7 27 -11 55 l-6 51 88 43 c133 64 156
70 268 67 98 -2 102 -3 215 -57z m-38 -163 c117 -58 163 -70 263 -70 95 0 129
10 252 70 80 40 101 46 176 50 106 7 155 -4 272 -62 161 -80 293 -80 465 0
124 58 174 69 271 62 66 -4 95 -13 176 -50 121 -56 169 -69 258 -69 89 0 137
13 258 69 159 74 278 72 437 -7 41 -20 99 -43 129 -50 117 -28 252 -9 357 50
55 30 144 60 181 60 27 0 29 -20 10 -109 l-12 -54 -60 -13 c-33 -6 -96 -30
-140 -53 -157 -80 -277 -79 -452 2 -113 53 -201 72 -287 62 -72 -9 -109 -21
-209 -70 -148 -72 -278 -71 -430 3 -98 48 -133 59 -212 67 -81 9 -184 -14
-276 -61 -173 -87 -300 -86 -471 4 -158 84 -290 81 -480 -9 l-113 -54 -105 0
-105 0 -112 53 c-200 95 -327 94 -515 -6 -3 -2 -12 23 -18 55 -7 31 -14 63
-17 69 -5 14 94 71 167 96 43 14 77 17 152 15 93 -4 103 -6 190 -50z m18 -217
l115 -55 125 0 125 0 115 55 115 55 115 0 115 0 115 -55 115 -55 125 0 125 0
114 54 c104 50 122 55 198 59 99 5 152 -6 259 -58 97 -47 147 -60 239 -60 92
0 143 13 240 60 102 49 144 60 230 60 85 0 130 -12 216 -55 93 -47 162 -65
248 -65 99 1 150 13 242 60 74 38 156 66 166 57 2 -3 -5 -41 -17 -86 -17 -63
-27 -82 -43 -87 -12 -3 -65 -26 -118 -50 -176 -81 -283 -81 -453 0 -184 88
-297 88 -485 0 -173 -81 -275 -81 -450 0 -194 89 -326 86 -516 -13 -129 -68
-269 -64 -415 9 -184 93 -312 94 -495 4 -169 -83 -281 -83 -449 -1 -50 25
-119 51 -154 58 -78 15 -181 7 -250 -20 -38 -14 -54 -16 -57 -8 -24 65 -35
102 -35 113 0 15 62 50 125 71 25 8 77 12 140 10 98 -2 102 -3 215 -57z m-24
-197 c109 -55 172 -73 264 -73 92 0 155 18 264 73 77 39 87 42 183 45 113 5
143 -2 248 -56 92 -46 153 -62 246 -62 86 0 161 19 234 60 89 49 147 63 253
58 90 -3 104 -7 197 -50 114 -54 165 -68 250 -68 86 0 137 14 250 68 l100 47
120 0 120 0 90 -44 c111 -54 171 -71 255 -71 86 0 161 20 261 71 l82 41 -7
-26 c-3 -14 -21 -59 -40 -100 -33 -71 -36 -75 -97 -105 -134 -65 -272 -60
-418 13 -89 45 -167 66 -246 66 -84 -1 -135 -14 -245 -65 -171 -79 -279 -79
-450 0 -110 51 -161 64 -245 65 -80 0 -158 -21 -252 -69 -153 -78 -276 -77
-438 3 -105 52 -155 65 -245 66 -86 0 -163 -21 -254 -69 -144 -76 -288 -76
-432 0 -108 57 -178 73 -297 66 l-98 -6 -25 56 c-13 31 -23 62 -20 69 11 27
89 44 201 41 107 -2 112 -3 191 -44z m-125 -163 c30 -6 95 -30 144 -55 106
-51 156 -65 245 -65 91 0 141 14 245 66 163 81 288 82 438 4 178 -93 315 -94
499 -5 165 81 275 81 447 1 183 -86 308 -86 489 -2 176 82 277 82 453 0 52
-24 122 -49 155 -55 75 -14 174 -6 247 20 31 10 57 18 57 15 0 -10 -111 -182
-125 -194 -10 -9 -43 -11 -112 -8 -91 4 -105 7 -188 47 -115 55 -173 71 -260
71 -89 -1 -145 -13 -220 -51 -102 -52 -162 -69 -245 -69 -88 0 -152 17 -247
65 -83 42 -136 54 -228 55 -88 0 -126 -10 -250 -68 l-100 -47 -120 0 -120 0
-82 42 c-122 63 -179 76 -294 71 -92 -5 -102 -7 -210 -59 l-114 -54 -115 0
-115 0 -112 53 c-96 46 -122 54 -194 60 l-83 7 -38 65 c-21 36 -38 70 -38 77
0 20 110 28 191 13z m9 -210 c25 -6 88 -31 142 -56 177 -84 301 -84 476 1 175
84 287 85 457 1 175 -86 306 -87 482 -2 165 80 299 84 432 14 181 -97 325
-100 507 -13 172 83 284 83 456 1 86 -41 159 -61 256 -68 l34 -3 -59 -70 c-55
-64 -63 -70 -97 -69 -21 1 -66 17 -104 37 -95 49 -163 67 -257 67 -93 0 -160
-17 -254 -65 -92 -47 -147 -59 -246 -53 -72 5 -97 12 -182 51 -125 58 -160 67
-258 67 -99 0 -135 -10 -255 -69 l-95 -46 -115 0 -115 0 -115 55 c-111 52
-119 55 -213 58 -119 5 -164 -5 -286 -66 l-95 -47 -116 0 -116 0 -95 47 c-51
25 -104 49 -115 53 -18 5 -132 145 -142 175 -5 13 30 12 88 0z m1067 -258
c188 -90 320 -92 480 -10 177 90 283 91 473 3 175 -81 296 -81 470 0 192 89
288 88 487 -7 l92 -44 -54 -54 -54 -53 -50 21 c-127 55 -270 47 -421 -23 -116
-53 -158 -65 -235 -65 -77 0 -119 12 -235 65 -173 80 -336 78 -478 -6 -133
-78 -306 -78 -447 1 -155 86 -312 88 -480 5 -102 -50 -151 -65 -212 -65 -36 0
-51 7 -100 49 -61 52 -205 196 -188 189 6 -2 35 -16 66 -31 126 -61 288 -57
417 10 118 61 166 74 269 70 85 -4 98 -7 200 -55z m-112 -163 c22 -6 81 -30
131 -55 162 -79 294 -78 464 1 124 58 174 69 271 62 66 -4 95 -13 176 -50 122
-57 165 -68 258 -68 94 0 136 11 260 69 l100 47 110 0 c89 0 119 -4 154 -20
l44 -21 -74 -55 c-71 -54 -77 -56 -151 -63 -88 -8 -124 -19 -231 -71 -141 -69
-280 -71 -409 -5 -193 98 -336 102 -509 14 -173 -87 -287 -87 -464 1 -49 25
-117 50 -150 56 -81 15 -185 4 -259 -27 -34 -14 -68 -28 -77 -31 -15 -4 -169
84 -169 97 0 4 27 12 60 18 33 7 90 29 127 49 38 20 86 42 108 49 49 16 176
18 230 3z m125 -259 l115 -55 125 0 125 0 114 54 c104 50 122 55 198 59 99 5
152 -6 259 -58 97 -47 147 -60 239 -60 92 0 142 13 239 60 80 39 172 68 182
57 9 -9 -158 -96 -284 -147 -64 -27 -160 -61 -213 -75 l-96 -27 -61 31 c-163
82 -308 80 -487 -9 -84 -42 -155 -60 -202 -53 -124 19 -199 39 -264 68 -41 20
-111 42 -154 50 -89 17 -282 102 -266 118 5 5 34 18 63 29 41 14 75 18 153 15
98 -2 102 -4 215 -57z m874 -178 c27 -12 47 -25 44 -27 -13 -13 -236 -35 -358
-35 l-135 0 43 26 c87 52 138 65 252 61 82 -2 116 -8 154 -25z"/>
<path d="M1037 3064 c-4 -4 -7 -132 -7 -285 l0 -278 53 -25 c28 -14 77 -31
107 -37 58 -12 167 -7 213 10 26 10 28 14 25 63 l-3 53 -127 3 -128 3 -2 247
-3 247 -60 3 c-34 2 -64 0 -68 -4z"/>
<path d="M1510 3051 c-6 -12 -10 -120 -10 -281 0 -246 1 -262 18 -255 9 3 43
13 75 22 l57 16 0 239 c0 146 -4 247 -10 259 -9 15 -22 19 -65 19 -43 0 -56
-4 -65 -19z"/>
<path d="M2507 3063 c-13 -12 -7 -445 6 -483 12 -34 13 -35 57 -30 25 2 64 5
87 5 42 -1 42 0 23 20 -35 38 -40 72 -40 286 l0 209 -63 0 c-35 0 -67 -3 -70
-7z"/>
<path d="M2906 3055 c-3 -9 -6 -113 -6 -230 l0 -213 -25 -31 c-14 -16 -36 -33
-48 -37 -18 -6 -7 -13 63 -46 96 -44 92 -45 134 42 19 42 21 61 21 285 l0 240
-66 3 c-54 2 -68 0 -73 -13z"/>
<path d="M3190 2750 l0 -321 38 7 c20 4 52 13 70 20 l32 13 -2 298 -3 298 -67
3 -68 3 0 -321z"/>
<path d="M3488 3060 c-16 -10 -18 -34 -18 -266 0 -238 1 -255 18 -250 9 2 43
7 75 11 l57 6 0 195 0 194 63 0 c80 -1 137 -26 176 -80 83 -114 33 -267 -102
-314 l-38 -13 43 -12 c24 -7 64 -24 91 -37 l47 -24 30 22 c71 52 114 145 114
248 0 60 -5 86 -26 131 -35 76 -88 133 -156 166 -54 26 -66 28 -207 31 -94 1
-157 -2 -167 -8z"/>
</g>
</svg>
