<svg width="101" height="24" viewBox="0 0 101 24" fill="none" xmlns="http://www.w3.org/2000/svg">
<path d="M36.544 18C35.6907 18 35.0613 17.8027 34.656 17.408C34.2613 17.0133 34.064 16.3947 34.064 15.552V11.04H32.72V9.456H34.064V7.456H36.112V9.456H38.368V11.04H36.112V15.36C36.112 15.7547 36.192 16.032 36.352 16.192C36.5227 16.3413 36.7947 16.416 37.168 16.416H38.368V18H36.544ZM39.9794 6.64H42.0274V10.608C42.2407 10.16 42.5607 9.824 42.9874 9.6C43.414 9.376 43.9047 9.264 44.4594 9.264C45.3767 9.264 46.086 9.56267 46.5874 10.16C47.0994 10.7467 47.3554 11.5307 47.3554 12.512V18H45.3074V13.008C45.3074 12.304 45.1847 11.7813 44.9394 11.44C44.7047 11.0987 44.342 10.928 43.8514 10.928C43.286 10.928 42.838 11.1147 42.5074 11.488C42.1874 11.8507 42.0274 12.3733 42.0274 13.056V18H39.9794V6.64ZM49.5888 9.456H51.6368V18H49.5888V9.456ZM49.5568 6.496H51.6848V8.32H49.5568V6.496ZM53.6825 9.456H55.5385L55.5865 10.896C55.7892 10.3733 56.0985 9.97333 56.5145 9.696C56.9305 9.408 57.4052 9.264 57.9385 9.264C58.5572 9.264 59.0798 9.41867 59.5065 9.728C59.9332 10.0373 60.2372 10.4693 60.4185 11.024C60.6105 10.4587 60.9145 10.0267 61.3305 9.728C61.7572 9.41867 62.2692 9.264 62.8665 9.264C63.7625 9.264 64.4612 9.54667 64.9625 10.112C65.4638 10.6667 65.7145 11.4667 65.7145 12.512V18H63.6665V13.04C63.6665 12.336 63.5438 11.808 63.2985 11.456C63.0638 11.104 62.7012 10.928 62.2105 10.928C61.7198 10.928 61.3358 11.12 61.0585 11.504C60.7812 11.888 60.6425 12.4213 60.6425 13.104V18H58.7385V13.104C58.7385 12.3787 58.6265 11.8347 58.4025 11.472C58.1785 11.1093 57.8158 10.928 57.3145 10.928C56.8238 10.928 56.4345 11.12 56.1465 11.504C55.8692 11.888 55.7305 12.4213 55.7305 13.104V18H53.6825V9.456ZM70.2726 18.192C69.366 18.192 68.6406 17.9893 68.0966 17.584C67.5633 17.168 67.2966 16.592 67.2966 15.856C67.2966 15.1307 67.5206 14.56 67.9686 14.144C68.4273 13.7173 69.1313 13.4133 70.0806 13.232L72.9126 12.672C72.9126 12.0747 72.774 11.6213 72.4966 11.312C72.2193 11.0027 71.814 10.848 71.2806 10.848C70.31 10.848 69.7286 11.2907 69.5366 12.176L67.4406 12.08C67.6113 11.184 68.0273 10.4907 68.6886 10C69.35 9.50933 70.214 9.264 71.2806 9.264C72.486 9.264 73.398 9.57333 74.0166 10.192C74.646 10.8 74.9606 11.6747 74.9606 12.816V15.92C74.9606 16.144 74.998 16.2987 75.0726 16.384C75.1473 16.4693 75.27 16.512 75.4406 16.512H75.7126V18C75.542 18.0427 75.2966 18.064 74.9766 18.064C74.4753 18.064 74.07 17.9573 73.7606 17.744C73.462 17.5307 73.27 17.1733 73.1846 16.672C72.9713 17.1307 72.6033 17.4987 72.0806 17.776C71.5686 18.0533 70.966 18.192 70.2726 18.192ZM70.6886 16.704C71.3606 16.704 71.8993 16.5067 72.3046 16.112C72.71 15.7173 72.9126 15.1947 72.9126 14.544V14.064L70.7046 14.512C70.2566 14.5973 69.9313 14.736 69.7286 14.928C69.526 15.12 69.4246 15.3653 69.4246 15.664C69.4246 15.9947 69.5313 16.2507 69.7446 16.432C69.9686 16.6133 70.2833 16.704 70.6886 16.704ZM77.2606 9.456H79.1806L79.2286 11.104C79.3993 10.5387 79.65 10.1227 79.9806 9.856C80.322 9.58933 80.754 9.456 81.2766 9.456H82.0606V11.216H81.2606C80.5993 11.216 80.1086 11.3653 79.7886 11.664C79.4686 11.952 79.3086 12.4213 79.3086 13.072V18H77.2606V9.456ZM83.62 9.456H85.668V18H83.62V9.456ZM83.588 6.496H85.716V8.32H83.588V6.496ZM87.7138 9.456H89.5698L89.6178 10.896C89.8204 10.3733 90.1298 9.97333 90.5458 9.696C90.9618 9.408 91.4364 9.264 91.9698 9.264C92.5884 9.264 93.1111 9.41867 93.5378 9.728C93.9644 10.0373 94.2684 10.4693 94.4498 11.024C94.6418 10.4587 94.9458 10.0267 95.3618 9.728C95.7884 9.41867 96.3004 9.264 96.8978 9.264C97.7938 9.264 98.4924 9.54667 98.9938 10.112C99.4951 10.6667 99.7458 11.4667 99.7458 12.512V18H97.6978V13.04C97.6978 12.336 97.5751 11.808 97.3298 11.456C97.0951 11.104 96.7324 10.928 96.2418 10.928C95.7511 10.928 95.3671 11.12 95.0898 11.504C94.8124 11.888 94.6737 12.4213 94.6737 13.104V18H92.7698V13.104C92.7698 12.3787 92.6578 11.8347 92.4338 11.472C92.2098 11.1093 91.8471 10.928 91.3458 10.928C90.8551 10.928 90.4658 11.12 90.1778 11.504C89.9004 11.888 89.7618 12.4213 89.7618 13.104V18H87.7138V9.456Z" fill="white"/>
<g clip-path="url(#clip0_184_350)">
<path d="M19.0387 11.459C19.0397 11.474 19.0607 11.703 19.0687 11.866C19.0747 11.979 19.0687 12.156 19.0687 12.166C19.0717 12.166 19.0987 12.19 19.0987 12.19C20.5267 13.36 22.0417 14.957 22.3027 16.13C22.3757 16.455 22.3587 16.748 22.2307 16.998C22.0787 17.291 21.7917 17.501 21.3967 17.636C19.3507 18.336 14.4717 16.994 10.4897 15.027C7.64466 13.621 5.14766 11.946 3.45766 10.308C1.88766 8.78501 1.46266 7.59801 1.86766 6.88101C2.02266 6.61001 2.28766 6.40901 2.64366 6.27201C3.94266 5.76501 6.43166 6.12001 8.88266 6.85101C7.72266 7.71701 6.91466 8.88502 6.54066 10.053L6.53966 10.06C6.53945 10.062 6.53912 10.064 6.53866 10.066C6.42366 11.136 7.97266 12.536 9.53866 13.316C9.53666 13.31 9.62266 13.348 9.62266 13.342C9.62066 13.336 9.60766 13.233 9.60566 13.229C9.23966 10.569 11.2537 6.58901 13.3707 5.71601C13.5067 5.66001 13.6247 5.62601 13.6407 5.62101L13.3677 5.59401C13.2937 5.58801 13.2197 5.58101 13.1397 5.57901C13.0491 5.57403 12.9584 5.57069 12.8677 5.56901C11.6736 5.54547 10.4964 5.8543 9.46766 6.46101C5.37766 5.05701 2.38266 4.89201 1.12966 5.31001C0.632663 5.47701 0.296663 5.72801 0.129663 6.06101C-0.0443374 6.41101 -0.0453374 6.85101 0.127663 7.36701C0.697663 9.07101 3.18566 11.399 6.33866 13.466C6.79566 15.873 8.95366 18.341 12.0417 18.67L12.1837 18.685C12.2003 18.6835 12.217 18.6835 12.2337 18.685C12.1767 18.6401 12.1191 18.5961 12.0607 18.553C11.1057 17.817 10.2477 16.604 9.95366 15.553L10.1387 15.646L10.2817 15.716C15.2667 18.181 20.4967 19.436 22.8117 18.663C23.3307 18.489 23.7117 18.245 23.8867 17.895C24.0537 17.56 24.0257 17.115 23.8577 16.617C23.4217 15.317 21.5537 13.333 19.1827 11.565C19.135 11.5285 19.0866 11.4928 19.0377 11.458" fill="white"/>
</g>
<defs>
<clipPath id="clip0_184_350">
<rect width="24" height="24" fill="white"/>
</clipPath>
</defs>
</svg>
