<?xml version="1.0" encoding="utf-8"?>
<!-- Generator: Adobe Illustrator 22.0.0, SVG Export Plug-In . SVG Version: 6.00 Build 0)  -->
<svg version="1.1" xmlns="http://www.w3.org/2000/svg" xmlns:xlink="http://www.w3.org/1999/xlink" x="0px" y="0px"
	 viewBox="0 0 1500 1500" style="enable-background:new 0 0 1500 1500;" xml:space="preserve">
<style type="text/css">
	.st0{display:none;}
	.st1{display:inline;stroke:#000000;stroke-miterlimit:10;}
	.st2{fill:#FFFFFF;}
	.st3{display:none;fill:#FFFFFF;}
</style>
<g id="Layer_1" class="st0">
	<rect x="0.5" y="-0.5" class="st1" width="1500" height="1501"/>
	<path class="st2" d="M1176,1277c0,0-59-16-45-104c0,0,43-209,49-209c0,0,23-75,156-74c12.6,11,54,140.4-87,179
		C1204.8,1081.3,1131.5,1155.2,1176,1277z"/>
	<path class="st2" d="M1185,1235l5,41c0,0,100,10,108-201l-35,14C1263,1089,1258,1250,1185,1235z"/>
</g>
<g id="Layer_2">
	<g>
		<path class="st3" d="M242.8,1120.2c0,0-93.2-20.7-71.1-134.7c0,0,67.9-270.7,77.4-270.7c0,0,36.3-97.1,246.4-95.8
			c19.9,14.2,85.3,181.9-137.4,231.8C288.4,866.8,172.6,962.5,242.8,1120.2z"/>
		<path class="st3" d="M269.5,1063.1l9,55.7c0,0,180.1,13.6,194.5-273.1l-63,19C410,864.7,401,1083.5,269.5,1063.1z"/>
		<path class="st3" d="M490.9,1218.7l313.7-53.9c16.4-4,147.4-37.8,179.2-222.1c0.3-1.9,1.7-5.6,1.7-5.6l-527.4,90.7
			c0,0-226.4,26.3-112.9,277.4C346,1308.3,360.9,1235.8,490.9,1218.7z"/>
		<path class="st3" d="M137.9,700.8c11.1,5,34.7-108,417.3-135.4c23.8,0.2,143.6-36.5,151.8-190.6l-464.3,94.5
			C242.7,469.2,23.9,499.6,137.9,700.8z"/>
		<path class="st2" d="M590.8,1123.2c0,0-93.2-20.7-71.1-134.7c0,0,67.9-270.7,77.4-270.7c0,0,36.3-97.1,246.4-95.8
			c19.9,14.2,85.3,181.9-137.4,231.8C636.4,869.8,520.6,965.5,590.8,1123.2z"/>
		<path class="st2" d="M617.5,1063.1l9,55.7c0,0,180.1,13.6,194.5-273.1l-63,19C758,864.7,749,1083.5,617.5,1063.1z"/>
		<path class="st2" d="M440.3,730.7c13,5.8,40.5-126,486.7-157.9c27.8,0.3,167.5-42.5,177-222.3L562.5,460.6
			C562.5,460.6,307.4,496.1,440.3,730.7z"/>
	</g>
</g>
<g id="Layer_3">
</g>
</svg>
