<svg width="395" height="302" viewBox="0 0 395 302" fill="none" xmlns="http://www.w3.org/2000/svg">
<g clip-path="url(#clip0_188_674)">
<rect x="1" y="1" width="393" height="300" rx="10" fill="url(#paint0_linear_188_674)"/>
<path d="M33.4336 50.4453V53H22.4883V36.0898H33.4336V38.6445H25.5117V43.2148H33V45.6172H25.5117V50.4453H33.4336ZM35.2956 53V40.5781H38.0964V42.7109H38.155C38.823 41.2344 40.1472 40.3438 42.0573 40.3438C44.7995 40.3438 46.3581 42.1016 46.3581 44.9727V53H43.4402V45.5586C43.4402 43.8008 42.6198 42.8164 40.9558 42.8164C39.28 42.8164 38.2136 44.0234 38.2136 45.8047V53H35.2956ZM49.0405 37.6719H51.9584V40.5781H54.3022V42.8281H51.9584V49.2852C51.9584 50.3047 52.4272 50.7734 53.4584 50.7734C53.728 50.7734 54.103 50.75 54.2905 50.7148V52.9414C53.9741 53.0117 53.3998 53.0586 52.7787 53.0586C50.0952 53.0586 49.0405 52.1094 49.0405 49.6953V42.8281H47.2592V40.5781H49.0405V37.6719ZM66.84 40.5781V53H64.0275V50.8438H63.9689C63.3127 52.3555 62.0588 53.2227 60.172 53.2227C57.4767 53.2227 55.7658 51.4766 55.7658 48.6055V40.5781H58.6838V48.0195C58.6838 49.8008 59.5509 50.7617 61.1916 50.7617C62.8791 50.7617 63.922 49.5664 63.922 47.7617V40.5781H66.84ZM68.538 44.1406C68.538 41.8672 70.5419 40.3203 73.5653 40.3203C76.4833 40.3203 78.4637 41.8906 78.5341 44.1875H75.8153C75.7216 43.1211 74.8661 42.4648 73.5067 42.4648C72.2177 42.4648 71.3739 43.0742 71.3739 43.9766C71.3739 44.6797 71.9364 45.1484 73.1552 45.4414L75.37 45.9336C77.8544 46.5195 78.827 47.4805 78.827 49.3203C78.827 51.6641 76.6591 53.2461 73.5184 53.2461C70.4012 53.2461 68.4208 51.6992 68.2216 49.3438H71.0927C71.2684 50.4805 72.1473 51.1133 73.6239 51.1133C75.0419 51.1133 75.9208 50.5391 75.9208 49.6133C75.9208 48.8867 75.4637 48.5 74.2567 48.1953L71.995 47.668C69.6981 47.1289 68.538 45.9336 68.538 44.1406ZM80.2906 53V40.5781H83.2086V53H80.2906ZM81.7438 38.9492C80.8414 38.9492 80.1266 38.2461 80.1266 37.3672C80.1266 36.4766 80.8414 35.7734 81.7438 35.7734C82.6578 35.7734 83.3727 36.4766 83.3727 37.3672C83.3727 38.2461 82.6578 38.9492 81.7438 38.9492ZM89.723 50.9961C91.3753 50.9961 92.6995 49.8945 92.6995 48.3945V47.4453L89.8284 47.6211C88.4222 47.7148 87.6136 48.3477 87.6136 49.332C87.6136 50.3516 88.4573 50.9961 89.723 50.9961ZM88.8441 53.1992C86.4417 53.1992 84.6956 51.6875 84.6956 49.4492C84.6956 47.2461 86.3948 45.9219 89.4183 45.7344L92.6995 45.5469V44.6562C92.6995 43.3555 91.8206 42.6055 90.3792 42.6055C88.9964 42.6055 88.1175 43.2734 87.93 44.3047H85.223C85.3519 41.9844 87.3323 40.3203 90.4964 40.3203C93.5784 40.3203 95.5823 41.9492 95.5823 44.4453V53H92.7698V51.0195H92.7113C91.9964 52.3672 90.4378 53.1992 88.8441 53.1992ZM97.2452 44.1406C97.2452 41.8672 99.2491 40.3203 102.272 40.3203C105.19 40.3203 107.171 41.8906 107.241 44.1875H104.522C104.429 43.1211 103.573 42.4648 102.214 42.4648C100.925 42.4648 100.081 43.0742 100.081 43.9766C100.081 44.6797 100.644 45.1484 101.862 45.4414L104.077 45.9336C106.562 46.5195 107.534 47.4805 107.534 49.3203C107.534 51.6641 105.366 53.2461 102.226 53.2461C99.1084 53.2461 97.128 51.6992 96.9287 49.3438H99.7998C99.9756 50.4805 100.855 51.1133 102.331 51.1133C103.749 51.1133 104.628 50.5391 104.628 49.6133C104.628 48.8867 104.171 48.5 102.964 48.1953L100.702 47.668C98.4053 47.1289 97.2452 45.9336 97.2452 44.1406ZM109.736 37.6719H112.654V40.5781H114.998V42.8281H112.654V49.2852C112.654 50.3047 113.123 50.7734 114.154 50.7734C114.424 50.7734 114.799 50.75 114.986 50.7148V52.9414C114.67 53.0117 114.095 53.0586 113.474 53.0586C110.791 53.0586 109.736 52.1094 109.736 49.6953V42.8281H107.955V40.5781H109.736V37.6719ZM120.891 50.9961C122.543 50.9961 123.868 49.8945 123.868 48.3945V47.4453L120.997 47.6211C119.59 47.7148 118.782 48.3477 118.782 49.332C118.782 50.3516 119.625 50.9961 120.891 50.9961ZM120.012 53.1992C117.61 53.1992 115.864 51.6875 115.864 49.4492C115.864 47.2461 117.563 45.9219 120.586 45.7344L123.868 45.5469V44.6562C123.868 43.3555 122.989 42.6055 121.547 42.6055C120.165 42.6055 119.286 43.2734 119.098 44.3047H116.391C116.52 41.9844 118.5 40.3203 121.665 40.3203C124.747 40.3203 126.75 41.9492 126.75 44.4453V53H123.938V51.0195H123.879C123.165 52.3672 121.606 53.1992 120.012 53.1992ZM137.611 53.1992C134.482 53.1992 132.455 50.7266 132.455 46.7773C132.455 42.8516 134.482 40.3672 137.611 40.3672C139.393 40.3672 140.799 41.293 141.455 42.6641H141.525V36.0898H144.443V53H141.584V50.8789H141.537C140.857 52.2734 139.428 53.1992 137.611 53.1992ZM138.49 42.7695C136.615 42.7695 135.443 44.3281 135.443 46.7891C135.443 49.2617 136.603 50.8086 138.49 50.8086C140.33 50.8086 141.537 49.25 141.537 46.7891C141.537 44.3516 140.33 42.7695 138.49 42.7695ZM151.778 42.582C150.137 42.582 148.954 43.8359 148.837 45.5703H154.637C154.579 43.8125 153.454 42.582 151.778 42.582ZM154.649 49.2852H157.38C157.005 51.6289 154.825 53.2461 151.883 53.2461C148.157 53.2461 145.907 50.7969 145.907 46.8359C145.907 42.9102 148.18 40.3203 151.766 40.3203C155.294 40.3203 157.497 42.7695 157.497 46.543V47.4922H148.813V47.668C148.813 49.6602 150.032 50.9961 151.942 50.9961C153.301 50.9961 154.333 50.3164 154.649 49.2852ZM164.057 37.6719H166.975V40.5781H169.318V42.8281H166.975V49.2852C166.975 50.3047 167.443 50.7734 168.475 50.7734C168.744 50.7734 169.119 50.75 169.307 50.7148V52.9414C168.99 53.0117 168.416 53.0586 167.795 53.0586C165.111 53.0586 164.057 52.1094 164.057 49.6953V42.8281H162.275V40.5781H164.057V37.6719ZM175.962 42.582C174.321 42.582 173.137 43.8359 173.02 45.5703H178.821C178.762 43.8125 177.637 42.582 175.962 42.582ZM178.833 49.2852H181.563C181.188 51.6289 179.009 53.2461 176.067 53.2461C172.341 53.2461 170.091 50.7969 170.091 46.8359C170.091 42.9102 172.364 40.3203 175.95 40.3203C179.477 40.3203 181.68 42.7695 181.68 46.543V47.4922H172.997V47.668C172.997 49.6602 174.216 50.9961 176.126 50.9961C177.485 50.9961 178.516 50.3164 178.833 49.2852ZM194.042 45.0078H191.289C191.054 43.6836 190.128 42.6875 188.57 42.6875C186.73 42.6875 185.546 44.2344 185.546 46.7891C185.546 49.3906 186.742 50.8906 188.593 50.8906C190.07 50.8906 191.031 50.0469 191.3 48.6406H194.054C193.82 51.418 191.675 53.2461 188.558 53.2461C184.925 53.2461 182.582 50.8203 182.582 46.7891C182.582 42.8164 184.925 40.3203 188.535 40.3203C191.816 40.3203 193.843 42.3945 194.042 45.0078ZM195.33 53V40.5781H198.131V42.7109H198.19C198.858 41.2344 200.182 40.3438 202.092 40.3438C204.834 40.3438 206.393 42.1016 206.393 44.9727V53H203.475V45.5586C203.475 43.8008 202.655 42.8164 200.99 42.8164C199.315 42.8164 198.248 44.0234 198.248 45.8047V53H195.33ZM213.763 53.2461C210.118 53.2461 207.751 50.8203 207.751 46.7891C207.751 42.7812 210.142 40.3203 213.763 40.3203C217.384 40.3203 219.774 42.7695 219.774 46.7891C219.774 50.8203 217.407 53.2461 213.763 53.2461ZM213.763 50.9375C215.614 50.9375 216.81 49.4375 216.81 46.7891C216.81 44.1523 215.614 42.6406 213.763 42.6406C211.923 42.6406 210.716 44.1523 210.716 46.7891C210.716 49.4375 211.911 50.9375 213.763 50.9375ZM221.261 53V36.0898H224.179V53H221.261ZM231.69 53.2461C228.045 53.2461 225.678 50.8203 225.678 46.7891C225.678 42.7812 228.069 40.3203 231.69 40.3203C235.311 40.3203 237.702 42.7695 237.702 46.7891C237.702 50.8203 235.334 53.2461 231.69 53.2461ZM231.69 50.9375C233.541 50.9375 234.737 49.4375 234.737 46.7891C234.737 44.1523 233.541 42.6406 231.69 42.6406C229.85 42.6406 228.643 44.1523 228.643 46.7891C228.643 49.4375 229.838 50.9375 231.69 50.9375ZM244.591 50.6914C246.454 50.6914 247.661 49.1797 247.661 46.7539C247.661 44.3398 246.454 42.7695 244.591 42.7695C242.751 42.7695 241.579 44.3164 241.579 46.7539C241.579 49.2148 242.751 50.6914 244.591 50.6914ZM244.579 57.6875C241.509 57.6875 239.306 56.1172 239.013 53.9375H241.907C242.224 54.8867 243.29 55.5312 244.673 55.5312C246.571 55.5312 247.661 54.4648 247.661 52.8828V50.7852H247.591C246.946 52.1211 245.482 53.0117 243.7 53.0117C240.63 53.0117 238.591 50.6094 238.591 46.7422C238.591 42.8164 240.583 40.3672 243.759 40.3672C245.528 40.3672 246.958 41.2812 247.673 42.7109H247.72V40.5781H250.579V52.8008C250.579 55.7656 248.2 57.6875 244.579 57.6875ZM252.558 53V40.5781H255.476V53H252.558ZM254.012 38.9492C253.109 38.9492 252.394 38.2461 252.394 37.3672C252.394 36.4766 253.109 35.7734 254.012 35.7734C254.926 35.7734 255.64 36.4766 255.64 37.3672C255.64 38.2461 254.926 38.9492 254.012 38.9492ZM261.991 50.9961C263.643 50.9961 264.967 49.8945 264.967 48.3945V47.4453L262.096 47.6211C260.69 47.7148 259.881 48.3477 259.881 49.332C259.881 50.3516 260.725 50.9961 261.991 50.9961ZM261.112 53.1992C258.71 53.1992 256.963 51.6875 256.963 49.4492C256.963 47.2461 258.663 45.9219 261.686 45.7344L264.967 45.5469V44.6562C264.967 43.3555 264.088 42.6055 262.647 42.6055C261.264 42.6055 260.385 43.2734 260.198 44.3047H257.491C257.62 41.9844 259.6 40.3203 262.764 40.3203C265.846 40.3203 267.85 41.9492 267.85 44.4453V53H265.038V51.0195H264.979C264.264 52.3672 262.706 53.1992 261.112 53.1992ZM279.426 42.582C277.785 42.582 276.602 43.8359 276.484 45.5703H282.285C282.227 43.8125 281.102 42.582 279.426 42.582ZM282.297 49.2852H285.027C284.652 51.6289 282.473 53.2461 279.531 53.2461C275.805 53.2461 273.555 50.7969 273.555 46.8359C273.555 42.9102 275.828 40.3203 279.414 40.3203C282.941 40.3203 285.145 42.7695 285.145 46.543V47.4922H276.461V47.668C276.461 49.6602 277.68 50.9961 279.59 50.9961C280.949 50.9961 281.98 50.3164 282.297 49.2852ZM26.7305 78.9961C28.3828 78.9961 29.707 77.8945 29.707 76.3945V75.4453L26.8359 75.6211C25.4297 75.7148 24.6211 76.3477 24.6211 77.332C24.6211 78.3516 25.4648 78.9961 26.7305 78.9961ZM25.8516 81.1992C23.4492 81.1992 21.7031 79.6875 21.7031 77.4492C21.7031 75.2461 23.4023 73.9219 26.4258 73.7344L29.707 73.5469V72.6562C29.707 71.3555 28.8281 70.6055 27.3867 70.6055C26.0039 70.6055 25.125 71.2734 24.9375 72.3047H22.2305C22.3594 69.9844 24.3398 68.3203 27.5039 68.3203C30.5859 68.3203 32.5898 69.9492 32.5898 72.4453V81H29.7773V79.0195H29.7188C29.0039 80.3672 27.4453 81.1992 25.8516 81.1992ZM41.2956 68.3672C44.448 68.3672 46.4519 70.8164 46.4519 74.7891C46.4519 78.75 44.4597 81.1992 41.3425 81.1992C39.5378 81.1992 38.1316 80.332 37.4519 78.9375H37.3933V85.0898H34.4753V68.5781H37.323V70.7227H37.3816C38.0847 69.2812 39.4909 68.3672 41.2956 68.3672ZM40.405 78.8086C42.2917 78.8086 43.4636 77.25 43.4636 74.7891C43.4636 72.3398 42.2917 70.7695 40.405 70.7695C38.5886 70.7695 37.3816 72.375 37.3698 74.7891C37.3816 77.2266 38.5886 78.8086 40.405 78.8086ZM52.392 78.9961C54.0444 78.9961 55.3686 77.8945 55.3686 76.3945V75.4453L52.4975 75.6211C51.0912 75.7148 50.2827 76.3477 50.2827 77.332C50.2827 78.3516 51.1264 78.9961 52.392 78.9961ZM51.5131 81.1992C49.1108 81.1992 47.3647 79.6875 47.3647 77.4492C47.3647 75.2461 49.0639 73.9219 52.0873 73.7344L55.3686 73.5469V72.6562C55.3686 71.3555 54.4897 70.6055 53.0483 70.6055C51.6655 70.6055 50.7866 71.2734 50.5991 72.3047H47.892C48.0209 69.9844 50.0014 68.3203 53.1655 68.3203C56.2475 68.3203 58.2514 69.9492 58.2514 72.4453V81H55.4389V79.0195H55.3803C54.6655 80.3672 53.1069 81.1992 51.5131 81.1992ZM60.2072 81V68.5781H63.1252V81H60.2072ZM61.6603 66.9492C60.758 66.9492 60.0431 66.2461 60.0431 65.3672C60.0431 64.4766 60.758 63.7734 61.6603 63.7734C62.5744 63.7734 63.2892 64.4766 63.2892 65.3672C63.2892 66.2461 62.5744 66.9492 61.6603 66.9492ZM69.9559 76.5469H69.8973L67.3192 81H64.2137L68.2216 74.8008L64.2489 68.5781H67.5302L70.038 72.9375H70.0966L72.5692 68.5781H75.7684L71.7723 74.7188L75.7216 81H72.5341L69.9559 76.5469ZM81.9898 81.2461C78.3453 81.2461 75.9781 78.8203 75.9781 74.7891C75.9781 70.7812 78.3688 68.3203 81.9898 68.3203C85.6109 68.3203 88.0016 70.7695 88.0016 74.7891C88.0016 78.8203 85.6344 81.2461 81.9898 81.2461ZM81.9898 78.9375C83.8414 78.9375 85.0367 77.4375 85.0367 74.7891C85.0367 72.1523 83.8414 70.6406 81.9898 70.6406C80.15 70.6406 78.943 72.1523 78.943 74.7891C78.943 77.4375 80.1383 78.9375 81.9898 78.9375ZM89.4066 81V68.5781H92.2073V70.7109H92.2659C92.9339 69.2344 94.2581 68.3438 96.1683 68.3438C98.9105 68.3438 100.469 70.1016 100.469 72.9727V81H97.5511V73.5586C97.5511 71.8008 96.7308 70.8164 95.0667 70.8164C93.3909 70.8164 92.3245 72.0234 92.3245 73.8047V81H89.4066ZM106.878 78.9961C108.53 78.9961 109.855 77.8945 109.855 76.3945V75.4453L106.983 75.6211C105.577 75.7148 104.769 76.3477 104.769 77.332C104.769 78.3516 105.612 78.9961 106.878 78.9961ZM105.999 81.1992C103.597 81.1992 101.851 79.6875 101.851 77.4492C101.851 75.2461 103.55 73.9219 106.573 73.7344L109.855 73.5469V72.6562C109.855 71.3555 108.976 70.6055 107.534 70.6055C106.151 70.6055 105.272 71.2734 105.085 72.3047H102.378C102.507 69.9844 104.487 68.3203 107.651 68.3203C110.733 68.3203 112.737 69.9492 112.737 72.4453V81H109.925V79.0195H109.866C109.151 80.3672 107.593 81.1992 105.999 81.1992ZM119.263 81.1992C116.135 81.1992 114.107 78.7266 114.107 74.7773C114.107 70.8516 116.135 68.3672 119.263 68.3672C121.045 68.3672 122.451 69.293 123.107 70.6641H123.177V64.0898H126.095V81H123.236V78.8789H123.189C122.51 80.2734 121.08 81.1992 119.263 81.1992ZM120.142 70.7695C118.267 70.7695 117.095 72.3281 117.095 74.7891C117.095 77.2617 118.256 78.8086 120.142 78.8086C121.982 78.8086 123.189 77.25 123.189 74.7891C123.189 72.3516 121.982 70.7695 120.142 70.7695ZM133.571 81.2461C129.926 81.2461 127.559 78.8203 127.559 74.7891C127.559 70.7812 129.95 68.3203 133.571 68.3203C137.192 68.3203 139.582 70.7695 139.582 74.7891C139.582 78.8203 137.215 81.2461 133.571 81.2461ZM133.571 78.9375C135.422 78.9375 136.618 77.4375 136.618 74.7891C136.618 72.1523 135.422 70.6406 133.571 70.6406C131.731 70.6406 130.524 72.1523 130.524 74.7891C130.524 77.4375 131.719 78.9375 133.571 78.9375ZM152.143 68.3672C155.295 68.3672 157.299 70.8164 157.299 74.7891C157.299 78.75 155.307 81.1992 152.189 81.1992C150.385 81.1992 148.978 80.332 148.299 78.9375H148.24V85.0898H145.322V68.5781H148.17V70.7227H148.228C148.932 69.2812 150.338 68.3672 152.143 68.3672ZM151.252 78.8086C153.139 78.8086 154.31 77.25 154.31 74.7891C154.31 72.3398 153.139 70.7695 151.252 70.7695C149.435 70.7695 148.228 72.375 148.217 74.7891C148.228 77.2266 149.435 78.8086 151.252 78.8086ZM164.2 81.2461C160.555 81.2461 158.188 78.8203 158.188 74.7891C158.188 70.7812 160.579 68.3203 164.2 68.3203C167.821 68.3203 170.212 70.7695 170.212 74.7891C170.212 78.8203 167.844 81.2461 164.2 81.2461ZM164.2 78.9375C166.051 78.9375 167.247 77.4375 167.247 74.7891C167.247 72.1523 166.051 70.6406 164.2 70.6406C162.36 70.6406 161.153 72.1523 161.153 74.7891C161.153 77.4375 162.348 78.9375 164.2 78.9375ZM171.617 81V68.5781H174.417V70.7461H174.476C174.898 69.2344 175.988 68.3672 177.452 68.3672C177.827 68.3672 178.156 68.4375 178.367 68.4844V71.1211C178.12 71.0273 177.675 70.957 177.183 70.957C175.531 70.957 174.535 72.0234 174.535 73.7695V81H171.617ZM188.372 81.1992C185.243 81.1992 183.216 78.7266 183.216 74.7773C183.216 70.8516 185.243 68.3672 188.372 68.3672C190.153 68.3672 191.559 69.293 192.216 70.6641H192.286V64.0898H195.204V81H192.345V78.8789H192.298C191.618 80.2734 190.188 81.1992 188.372 81.1992ZM189.251 70.7695C187.376 70.7695 186.204 72.3281 186.204 74.7891C186.204 77.2617 187.364 78.8086 189.251 78.8086C191.091 78.8086 192.298 77.25 192.298 74.7891C192.298 72.3516 191.091 70.7695 189.251 70.7695ZM202.539 70.582C200.898 70.582 199.714 71.8359 199.597 73.5703H205.398C205.339 71.8125 204.214 70.582 202.539 70.582ZM205.41 77.2852H208.14C207.765 79.6289 205.585 81.2461 202.644 81.2461C198.917 81.2461 196.667 78.7969 196.667 74.8359C196.667 70.9102 198.941 68.3203 202.527 68.3203C206.054 68.3203 208.257 70.7695 208.257 74.543V75.4922H199.574V75.668C199.574 77.6602 200.792 78.9961 202.703 78.9961C204.062 78.9961 205.093 78.3164 205.41 77.2852ZM209.451 72.1406C209.451 69.8672 211.455 68.3203 214.479 68.3203C217.397 68.3203 219.377 69.8906 219.447 72.1875H216.729C216.635 71.1211 215.78 70.4648 214.42 70.4648C213.131 70.4648 212.287 71.0742 212.287 71.9766C212.287 72.6797 212.85 73.1484 214.069 73.4414L216.283 73.9336C218.768 74.5195 219.74 75.4805 219.74 77.3203C219.74 79.6641 217.572 81.2461 214.432 81.2461C211.315 81.2461 209.334 79.6992 209.135 77.3438H212.006C212.182 78.4805 213.061 79.1133 214.537 79.1133C215.955 79.1133 216.834 78.5391 216.834 77.6133C216.834 76.8867 216.377 76.5 215.17 76.1953L212.908 75.668C210.612 75.1289 209.451 73.9336 209.451 72.1406ZM226.489 70.582C224.849 70.582 223.665 71.8359 223.548 73.5703H229.349C229.29 71.8125 228.165 70.582 226.489 70.582ZM229.36 77.2852H232.091C231.716 79.6289 229.536 81.2461 226.595 81.2461C222.868 81.2461 220.618 78.7969 220.618 74.8359C220.618 70.9102 222.892 68.3203 226.477 68.3203C230.005 68.3203 232.208 70.7695 232.208 74.543V75.4922H223.524V75.668C223.524 77.6602 224.743 78.9961 226.653 78.9961C228.013 78.9961 229.044 78.3164 229.36 77.2852ZM233.625 81V68.5781H236.425V70.7109H236.484C237.152 69.2344 238.476 68.3438 240.386 68.3438C243.129 68.3438 244.687 70.1016 244.687 72.9727V81H241.769V73.5586C241.769 71.8008 240.949 70.8164 239.285 70.8164C237.609 70.8164 236.543 72.0234 236.543 73.8047V81H233.625ZM257.448 68.5781L253.077 81H249.866L245.459 68.5781H248.577L251.459 78.293H251.518L254.401 68.5781H257.448ZM263.47 81.2461C259.825 81.2461 257.458 78.8203 257.458 74.7891C257.458 70.7812 259.849 68.3203 263.47 68.3203C267.091 68.3203 269.482 70.7695 269.482 74.7891C269.482 78.8203 267.114 81.2461 263.47 81.2461ZM263.47 78.9375C265.321 78.9375 266.517 77.4375 266.517 74.7891C266.517 72.1523 265.321 70.6406 263.47 70.6406C261.63 70.6406 260.423 72.1523 260.423 74.7891C260.423 77.4375 261.618 78.9375 263.47 78.9375ZM270.969 81V64.0898H273.887V81H270.969ZM286.835 68.5781L282.463 81H279.253L274.846 68.5781H277.963L280.846 78.293H280.905L283.788 68.5781H286.835ZM287.783 81V68.5781H290.7V81H287.783ZM289.236 66.9492C288.333 66.9492 287.618 66.2461 287.618 65.3672C287.618 64.4766 288.333 63.7734 289.236 63.7734C290.15 63.7734 290.865 64.4766 290.865 65.3672C290.865 66.2461 290.15 66.9492 289.236 66.9492ZM292.68 81V68.5781H295.48V70.7344H295.539C296.078 69.293 297.391 68.3438 299.078 68.3438C300.836 68.3438 302.09 69.2461 302.547 70.8398H302.617C303.215 69.3047 304.691 68.3438 306.484 68.3438C308.934 68.3438 310.539 69.9961 310.539 72.4805V81H307.621V73.1953C307.621 71.6719 306.824 70.8047 305.395 70.8047C303.988 70.8047 303.027 71.8359 303.027 73.3242V81H300.191V73.043C300.191 71.6602 299.348 70.8047 297.988 70.8047C296.582 70.8047 295.598 71.8945 295.598 73.3945V81H292.68ZM317.768 70.582C316.128 70.582 314.944 71.8359 314.827 73.5703H320.628C320.569 71.8125 319.444 70.582 317.768 70.582ZM320.639 77.2852H323.37C322.995 79.6289 320.815 81.2461 317.874 81.2461C314.147 81.2461 311.897 78.7969 311.897 74.8359C311.897 70.9102 314.171 68.3203 317.757 68.3203C321.284 68.3203 323.487 70.7695 323.487 74.543V75.4922H314.803V75.668C314.803 77.6602 316.022 78.9961 317.932 78.9961C319.292 78.9961 320.323 78.3164 320.639 77.2852ZM324.904 81V68.5781H327.705V70.7109H327.763C328.431 69.2344 329.755 68.3438 331.665 68.3438C334.408 68.3438 335.966 70.1016 335.966 72.9727V81H333.048V73.5586C333.048 71.8008 332.228 70.8164 330.564 70.8164C328.888 70.8164 327.822 72.0234 327.822 73.8047V81H324.904ZM338.649 65.6719H341.567V68.5781H343.91V70.8281H341.567V77.2852C341.567 78.3047 342.035 78.7734 343.067 78.7734C343.336 78.7734 343.711 78.75 343.899 78.7148V80.9414C343.582 81.0117 343.008 81.0586 342.387 81.0586C339.703 81.0586 338.649 80.1094 338.649 77.6953V70.8281H336.867V68.5781H338.649V65.6719ZM350.694 81.2461C347.05 81.2461 344.682 78.8203 344.682 74.7891C344.682 70.7812 347.073 68.3203 350.694 68.3203C354.315 68.3203 356.706 70.7695 356.706 74.7891C356.706 78.8203 354.339 81.2461 350.694 81.2461ZM350.694 78.9375C352.546 78.9375 353.741 77.4375 353.741 74.7891C353.741 72.1523 352.546 70.6406 350.694 70.6406C348.854 70.6406 347.647 72.1523 347.647 74.7891C347.647 77.4375 348.843 78.9375 350.694 78.9375ZM359.658 81.1289C358.709 81.1289 357.97 80.3906 357.97 79.4414C357.97 78.5039 358.709 77.7539 359.658 77.7539C360.595 77.7539 361.334 78.5039 361.334 79.4414C361.334 80.3906 360.595 81.1289 359.658 81.1289Z" fill="white"/>
<rect x="113" y="134" width="212" height="228" rx="12" fill="#1C1C1D"/>
<circle cx="138" cy="159" r="9" fill="#505050"/>
<rect x="154" y="153" width="118" height="11" rx="5.5" fill="#505050"/>
<rect x="129" y="175" width="59" height="8" rx="4" fill="#505050"/>
<rect x="129" y="194" width="98" height="8" rx="4" fill="#505050"/>
<rect x="194" y="175" width="27" height="8" rx="4" fill="#505050"/>
<rect x="227" y="175" width="60" height="8" rx="4" fill="#505050"/>
</g>
<rect x="0.5" y="0.5" width="394" height="301" rx="10.5" stroke="#1C1C1D"/>
<defs>
<linearGradient id="paint0_linear_188_674" x1="-77.9359" y1="-191.5" x2="554.583" y2="-10.0398" gradientUnits="userSpaceOnUse">
<stop stop-color="white" stop-opacity="0.13"/>
<stop offset="1" stop-opacity="0"/>
</linearGradient>
<clipPath id="clip0_188_674">
<rect x="1" y="1" width="393" height="300" rx="10" fill="white"/>
</clipPath>
</defs>
</svg>
